<?xml version="1.0" encoding="UTF-8" standalone="no"?>
<!-- Created with Inkscape (http://www.inkscape.org/) -->

<svg
   xmlns:osb="http://www.openswatchbook.org/uri/2009/osb"
   xmlns:dc="http://purl.org/dc/elements/1.1/"
   xmlns:cc="http://creativecommons.org/ns#"
   xmlns:rdf="http://www.w3.org/1999/02/22-rdf-syntax-ns#"
   xmlns:svg="http://www.w3.org/2000/svg"
   xmlns="http://www.w3.org/2000/svg"
   xmlns:xlink="http://www.w3.org/1999/xlink"
   xmlns:sodipodi="http://sodipodi.sourceforge.net/DTD/sodipodi-0.dtd"
   xmlns:inkscape="http://www.inkscape.org/namespaces/inkscape"
   width="256"
   height="256"
   viewBox="0 0 67.733331 67.733335"
   version="1.1"
   id="svg8"
   sodipodi:docname="np2.svg"
   inkscape:version="0.92.4 (unknown)">
  <defs
     id="defs2">
    <linearGradient
       inkscape:collect="always"
       id="linearGradient6286">
      <stop
         style="stop-color:#cccccc;stop-opacity:1;"
         offset="0"
         id="stop6282" />
      <stop
         style="stop-color:#cccccc;stop-opacity:0;"
         offset="1"
         id="stop6284" />
    </linearGradient>
    <linearGradient
       inkscape:collect="always"
       id="linearGradient6232">
      <stop
         style="stop-color:#cccccc;stop-opacity:1;"
         offset="0"
         id="stop6228" />
      <stop
         style="stop-color:#cccccc;stop-opacity:0;"
         offset="1"
         id="stop6230" />
    </linearGradient>
    <linearGradient
       id="linearGradient4764"
       osb:paint="gradient">
      <stop
         style="stop-color:#b3b3b3;stop-opacity:1;"
         offset="0"
         id="stop4760" />
      <stop
         style="stop-color:#b3b3b3;stop-opacity:0;"
         offset="1"
         id="stop4762" />
    </linearGradient>
    <linearGradient
       inkscape:collect="always"
       id="linearGradient96">
      <stop
         style="stop-color:#b3b3b3;stop-opacity:1;"
         offset="0"
         id="stop92" />
      <stop
         style="stop-color:#b3b3b3;stop-opacity:0;"
         offset="1"
         id="stop94" />
    </linearGradient>
    <linearGradient
       inkscape:collect="always"
       id="linearGradient40">
      <stop
         style="stop-color:#d2b4d2;stop-opacity:1;"
         offset="0"
         id="stop36" />
      <stop
         style="stop-color:#d2b4d2;stop-opacity:0;"
         offset="1"
         id="stop38" />
    </linearGradient>
    <linearGradient
       inkscape:collect="always"
       id="linearGradient22">
      <stop
         style="stop-color:#d2b4d2;stop-opacity:1;"
         offset="0"
         id="stop18" />
      <stop
         style="stop-color:#d2b4d2;stop-opacity:0;"
         offset="1"
         id="stop20" />
    </linearGradient>
    <linearGradient
       inkscape:collect="always"
       xlink:href="#linearGradient22"
       id="linearGradient24"
       x1="46.207588"
       y1="10.847917"
       x2="51.215775"
       y2="12.170834"
       gradientUnits="userSpaceOnUse" />
    <linearGradient
       inkscape:collect="always"
       xlink:href="#linearGradient40"
       id="linearGradient42"
       x1="21.166666"
       y1="10.753422"
       x2="15.875"
       y2="12.170834"
       gradientUnits="userSpaceOnUse" />
    <linearGradient
       inkscape:collect="always"
       xlink:href="#linearGradient96"
       id="linearGradient98"
       x1="34.206844"
       y1="31.825596"
       x2="36.947174"
       y2="33.998959"
       gradientUnits="userSpaceOnUse" />
    <linearGradient
       gradientTransform="translate(0.30161997,-228.77082)"
       inkscape:collect="always"
       xlink:href="#linearGradient106"
       id="linearGradient108"
       x1="55.184525"
       y1="257.59598"
       x2="49.514881"
       y2="255.32811"
       gradientUnits="userSpaceOnUse" />
    <linearGradient
       inkscape:collect="always"
       id="linearGradient106">
      <stop
         style="stop-color:#cccccc;stop-opacity:1;"
         offset="0"
         id="stop102" />
      <stop
         style="stop-color:#cccccc;stop-opacity:0;"
         offset="1"
         id="stop104" />
    </linearGradient>
    <linearGradient
       inkscape:collect="always"
       xlink:href="#linearGradient106"
       id="linearGradient4690"
       gradientUnits="userSpaceOnUse"
       x1="29.38765"
       y1="59.22887"
       x2="25.324404"
       y2="56.488544" />
    <linearGradient
       inkscape:collect="always"
       xlink:href="#linearGradient106"
       id="linearGradient4710"
       gradientUnits="userSpaceOnUse"
       x1="45.640625"
       y1="59.22887"
       x2="38.45908"
       y2="66.599403" />
    <linearGradient
       inkscape:collect="always"
       xlink:href="#linearGradient6232"
       id="linearGradient6236"
       x1="55.636028"
       y1="51.826122"
       x2="54.224495"
       y2="48.613327"
       gradientUnits="userSpaceOnUse" />
    <linearGradient
       inkscape:collect="always"
       xlink:href="#linearGradient6232"
       id="linearGradient6258"
       gradientUnits="userSpaceOnUse"
       x1="10.394345"
       y1="62.819641"
       x2="10.677828"
       y2="60.457291" />
    <linearGradient
       inkscape:collect="always"
       xlink:href="#linearGradient6232"
       id="linearGradient6270"
       gradientUnits="userSpaceOnUse"
       x1="54.298767"
       y1="64.08168"
       x2="55.32782"
       y2="49.151627" />
    <linearGradient
       inkscape:collect="always"
       xlink:href="#linearGradient6286"
       id="linearGradient6288"
       x1="24.990536"
       y1="44.772095"
       x2="24.568453"
       y2="46.284"
       gradientUnits="userSpaceOnUse" />
  </defs>
  <sodipodi:namedview
     id="base"
     pagecolor="#ffffff"
     bordercolor="#666666"
     borderopacity="1.0"
     inkscape:pageopacity="0.0"
     inkscape:pageshadow="2"
     inkscape:zoom="2.8"
     inkscape:cx="86.38355"
     inkscape:cy="116.55979"
     inkscape:document-units="mm"
     inkscape:current-layer="layer2"
     showgrid="false"
     units="px"
     inkscape:window-width="1920"
     inkscape:window-height="995"
     inkscape:window-x="0"
     inkscape:window-y="48"
     inkscape:window-maximized="1"
     inkscape:snap-global="false" />
  <metadata
     id="metadata5">
    <rdf:RDF>
      <cc:Work
         rdf:about="">
        <dc:format>image/svg+xml</dc:format>
        <dc:type
           rdf:resource="http://purl.org/dc/dcmitype/StillImage" />
        <dc:title />
      </cc:Work>
    </rdf:RDF>
  </metadata>
  <g
     id="layer2"
     inkscape:label="レイヤー 2"
     style="display:inline"
     inkscape:groupmode="layer">
    <path
       inkscape:connector-curvature="0"
       id="path64"
       d="m 22.691329,64.818882 c -0.349073,-0.514381 -1.062483,-2.219121 -1.585355,-3.788301 l -0.950678,-2.85305 -3.103025,-0.317788 c -2.816089,-0.288401 -3.326693,-0.427421 -5.52184,-1.503371 -2.6054466,-1.277051 -3.7196352,-1.44689 -5.2625996,-0.802201 -1.2860256,0.53734 -1.2177364,1.338401 0.2618659,3.0718 2.749212,3.220791 7.6552927,5.90586 12.7112147,6.95679 0.291041,0.0605 1.32925,0.123801 2.30713,0.140681 l 1.777964,0.0307 z m 6.368193,0.506871 c 0.533667,-0.253241 0.967946,-0.688153 1.062217,-1.06376 0.220597,-0.878922 -0.318105,-2.862943 -1.241964,-4.574112 -0.913654,-1.692269 -0.939263,-1.871249 -0.267735,-1.871249 0.291822,0 0.743847,0.38228 1.063382,0.8993 0.693266,1.12173 1.604031,3.731051 1.604031,4.595529 0,0.611651 0.05779,0.637191 0.992188,0.43837 1.260697,-0.26824 2.102107,-0.274109 3.139167,-0.02191 0.823447,0.200261 0.824196,0.199441 0.996964,-1.10295 0.179167,-1.350618 1.476494,-4.25129 2.152216,-4.81208 0.794705,-0.659551 0.705789,0.501071 -0.175535,2.2913 -0.670558,1.36209 -0.879843,2.131689 -0.883069,3.24726 -0.0039,1.364091 0.04898,1.487972 0.789528,1.848271 2.123098,1.032949 4.789559,0.467079 5.76535,-1.22351 0.962882,-1.66823 2.61326,-7.038311 2.762221,-8.987859 0.135869,-1.778201 0.08493,-2.028323 -0.781309,-3.836451 C 45.527515,50.08806 44.366121,48.29119 43.456303,47.15885 L 41.802086,45.100051 39.85357,45.27662 c -1.68229,0.15244 -1.97181,0.115872 -2.119003,-0.267708 -0.09377,-0.244361 -0.112599,-0.502171 -0.04185,-0.57292 0.07075,-0.0708 1.140296,-0.243592 2.376774,-0.384091 1.236472,-0.140499 2.763538,-0.4373 3.393484,-0.65955 1.368288,-0.482759 4.20904,-2.557029 3.723537,-2.718869 -0.186081,-0.062 -1.369221,-0.24855 -2.629204,-0.41451 -1.908138,-0.25132 -2.307056,-0.385961 -2.387727,-0.805881 -0.09139,-0.475679 0.03492,-0.49403 2.235668,-0.324869 1.282888,0.0986 2.758356,0.247388 3.278815,0.33061 0.914448,0.14623 0.984737,0.0965 2.088536,-1.47706 0.628235,-0.895612 1.07741,-1.693211 0.998167,-1.772452 -0.07924,-0.0792 -2.324314,-0.241678 -4.989049,-0.360968 -2.664735,-0.119301 -4.88347,-0.225869 -4.930519,-0.236821 -0.04705,-0.01101 -0.0461,-0.224721 0.0021,-0.475051 0.07945,-0.412549 0.508225,-0.44844 4.583462,-0.383688 2.472698,0.0393 4.884261,0.13857 5.359032,0.22062 0.854943,0.147749 0.872252,0.12963 1.805353,-1.88995 0.518173,-1.121522 0.871378,-2.109881 0.784899,-2.19636 -0.08648,-0.0865 -2.565762,-0.0232 -5.509519,0.140679 -5.182783,0.28847 -6.253538,0.19988 -5.591072,-0.462589 0.145159,-0.145151 2.866276,-0.44137 6.046928,-0.658252 3.180654,-0.216868 5.807908,-0.425529 5.838343,-0.463669 0.03043,-0.0381 0.424755,-1.20046 0.876261,-2.5829 1.909654,-5.84709 4.415999,-17.9150801 4.21759,-20.3076204 -0.220646,-2.66056 -1.826331,-3.91481 -4.96639,-3.87938 -2.617092,0.0295 -4.336698,0.56714 -9.260417,2.8951599 -4.818621,2.2783304 -6.811759,2.7709904 -11.210361,2.7709904 -4.470921,0 -6.417821,-0.46424 -10.960652,-2.6135903 -4.880088,-2.3089101 -7.27504,-3.0638501 -9.711279,-3.0612201 -3.3596257,0.004 -4.8947907,1.3962901 -4.8947907,4.4404204 0,3.0019801 2.5221627,14.8736701 4.1876287,19.7109601 l 0.971746,2.8224 1.5875,0.0684 c 4.63279,0.199451 9.537474,0.632039 9.766864,0.86143 0.667757,0.667761 -0.348859,0.77833 -4.61768,0.502251 -2.395489,-0.154922 -4.784123,-0.242851 -5.308077,-0.1954 l -0.952642,0.0863 0.933823,2.07346 0.933822,2.073471 1.077153,-0.144751 c 0.592434,-0.0796 2.921317,-0.177549 5.175295,-0.21763 3.580325,-0.0637 4.108427,-0.0195 4.179535,0.349771 0.108427,0.56302 -1.071426,0.745418 -5.102677,0.78886 -1.74625,0.01879 -3.515154,0.109429 -3.930897,0.201348 l -0.755897,0.167132 1.238342,1.680779 c 1.237715,1.679919 1.238902,1.6807 2.343397,1.52858 4.219274,-0.581089 5.568197,-0.52488 4.961013,0.20673 -0.183903,0.221591 -1.140254,0.441081 -2.412534,0.553709 -1.15932,0.102621 -2.16633,0.281202 -2.237801,0.396841 -0.208811,0.33787 1.712561,1.8773 3.163554,2.534689 0.734244,0.332661 2.466083,0.761421 3.848531,0.952802 1.903222,0.263469 2.513542,0.44432 2.513542,0.744829 0,0.325471 -0.36539,0.382039 -2.030831,0.31442 l -2.030832,-0.0825 -1.603688,1.934541 c -0.882028,1.064 -2.021982,2.725859 -2.533231,3.69302 -0.802302,1.517779 -0.929543,2.007438 -0.929543,3.577201 0,3.257298 2.033195,9.285139 3.594177,10.655699 0.792312,0.695658 1.129435,0.80966 2.394315,0.80966 0.809688,0 1.878398,-0.192771 2.37491,-0.428379 z M 32.721544,33.10281 c -1.041605,-0.4537 -2.261953,-1.897758 -2.056411,-2.4334 0.08653,-0.225488 0.446492,-0.519919 0.79992,-0.654288 0.845431,-0.321442 3.56806,-0.313002 4.427384,0.01371 1.277544,0.485722 0.704573,2.20314 -1.005792,3.014771 -1.076545,0.510849 -1.125141,0.51218 -2.165101,0.0592 z m -4.440701,-7.477149 c -0.09702,-0.097 -0.17639,-1.69162 -0.17639,-3.54356 0,-2.61665 0.08128,-3.39837 0.364633,-3.50711 0.758674,-0.29113 0.958284,0.44269 0.958284,3.5229 0,2.03435 -0.107051,3.17621 -0.3175,3.38666 -0.359688,0.35969 -0.573977,0.39616 -0.829027,0.14111 z m 9.934001,-0.1378 c -0.513511,-0.51351 -0.438354,-6.40263 0.08728,-6.83886 0.761537,-0.63202 0.933455,0.0864 0.856922,3.581 -0.07326,3.34527 -0.249319,3.95274 -0.944203,3.25786 z m -20.860813,-7.48629 c -0.09664,-0.25184 0.385129,-0.88167 1.346522,-1.76032 2.796475,-2.55582 3.130385,-4.29534 1.205292,-6.2790098 -1.137717,-1.1723503 -2.298969,-1.8348303 -4.449631,-2.5385003 -1.036976,-0.33928 -1.379587,-0.57329 -1.312071,-0.8961703 0.114216,-0.54621 0.743385,-0.49066 2.689377,0.2374303 2.750093,1.02894 5.11577,3.3249701 5.368691,5.2106401 0.198147,1.47729 -0.481469,2.7797 -2.486158,4.76443 -1.737531,1.72024 -2.10971,1.91901 -2.362022,1.2615 z m 30.4327,-1.39379 c -1.789578,-1.72127 -2.484361,-2.97925 -2.484361,-4.4982 0,-1.19229 0.987843,-2.7565501 2.440469,-3.8645201 2.009013,-1.53235 5.629323,-2.6789202 5.629323,-1.7828402 0,0.2097202 -0.577697,0.5679902 -1.32601,0.8223502 -3.205588,1.08962 -5.685449,3.1674601 -5.685449,4.7637801 0,1.24531 0.900544,2.73424 2.504631,4.14109 0.801592,0.70303 1.458944,1.42707 1.46078,1.60897 0.0075,0.73939 -1.046599,0.24518 -2.539383,-1.19063 z m 1.570291,48.754571 c 2.0476,-0.43385 5.332384,-1.78825 7.50047,-3.09264 1.918006,-1.15393 4.600911,-3.617881 5.248275,-4.81997 0.513738,-0.95395 0.513722,-0.954411 -0.05288,-1.521021 -0.37502,-0.37502 -1.015471,-0.609888 -1.893004,-0.694209 -1.166823,-0.112111 -1.643462,0.0208 -3.96562,1.106358 -2.382504,1.1137 -2.936613,1.263492 -5.693087,1.538981 l -3.053691,0.3052 -0.957707,2.792351 c -0.52674,1.535801 -1.249206,3.238839 -1.605478,3.78455 l -0.647769,0.99218 1.6574,-0.005 c 0.911569,-0.003 2.469962,-0.17676 3.463094,-0.387189 z m 5.236708,-13.55921 c 0.748765,-0.442301 1.827202,-2.22436 1.815327,-2.99973 -0.01363,-0.88965 -1.053436,-2.615321 -1.812343,-3.00777 -1.161529,-0.600651 -2.984148,-0.535101 -3.83999,0.13811 -2.664312,2.095738 -1.431735,6.32663 1.843124,6.32663 0.680882,0 1.561828,-0.20202 1.993882,-0.45724 z"
       style="display:inline;fill:#ffffff;stroke-width:0.26458332"
       sodipodi:nodetypes="csccccsccccccsssscsccccccscsccccscccccccccccccsccccccccssscsscccccccccccccccccccccsccccsssccccccccccscsscccsccccccscscccssscssccccccccccscccccccccsc" />
    <path
       style="fill:url(#linearGradient24);fill-opacity:1;stroke:none;stroke-width:0.26458332px;stroke-linecap:butt;stroke-linejoin:miter;stroke-opacity:1"
       d="m 53.011159,6.5011902 c -6.047618,1.6063989 -6.80357,4.3467268 -6.80357,4.3467268 0,0 -0.850447,1.511904 0,3.023809 0.850445,1.511905 1.984375,2.551339 3.874254,3.96875 z"
       id="path14"
       inkscape:connector-curvature="0" />
    <path
       style="fill:url(#linearGradient42);fill-opacity:1;stroke:none;stroke-width:0.26458332px;stroke-linecap:butt;stroke-linejoin:miter;stroke-opacity:1"
       d="m 14.174107,6.5011902 c 6.236607,1.700893 6.992559,4.2522318 6.992559,4.2522318 0,0 1.039435,1.889881 0.188989,3.118304 -0.850447,1.228422 -1.430311,2.212029 -4.022447,4.129824 z"
       id="path26"
       inkscape:connector-curvature="0" />
    <path
       style="fill:url(#linearGradient98);fill-opacity:1;stroke:none;stroke-width:0.26458332px;stroke-linecap:butt;stroke-linejoin:miter;stroke-opacity:1"
       d="m 35.813243,30.408184 c 2.267857,0.566965 3.118305,0.661458 2.834822,1.511906 -0.283482,0.850445 -2.834822,2.740326 -2.834822,2.740326 0,0 -1.59484,-0.09144 -3.112524,-1.557626 z"
       id="path90"
       inkscape:connector-curvature="0" />
    <path
       style="display:inline;fill:url(#linearGradient108);fill-opacity:1;stroke:none;stroke-width:0.26458332px;stroke-linecap:butt;stroke-linejoin:miter;stroke-opacity:1"
       d="m 58.037484,3.4062609 c 2.740326,2.92931 1.889879,4.252229 1.889879,4.252229 0,0 -1.795386,18.5208301 -8.409969,30.1436001 -4.724703,6.52009 -8.598958,6.898071 -8.598958,6.898071 0,0 5.953125,-7.65402 9.071428,-18.331851 3.118304,-10.67783 5.575151,-18.3318391 6.04762,-22.9620491 z"
       id="path100"
       inkscape:connector-curvature="0" />
    <path
       style="fill:url(#linearGradient4690);fill-opacity:1;stroke:none;stroke-width:0.26499999;stroke-linecap:butt;stroke-linejoin:miter;stroke-miterlimit:4;stroke-dasharray:none;stroke-opacity:1"
       d="m 29.860118,65.276488 c -1.039434,-3.023811 -3.401785,-8.031995 -3.401785,-8.031995 0,0 1.606399,-1.6064 3.023809,-0.47247 1.41741,1.133928 2.456847,4.913691 2.456847,4.913691 0,0 3.590771,-0.472471 4.819195,0.566963 l -0.188988,2.267859 -3.401785,-0.472471 z"
       id="path140"
       inkscape:connector-curvature="0" />
    <path
       style="fill:url(#linearGradient4710);fill-opacity:1;stroke:none;stroke-width:0.26458332px;stroke-linecap:butt;stroke-linejoin:miter;stroke-opacity:1"
       d="m 42.04985,44.487798 c 3.96875,4.346726 5.480656,8.504462 5.480656,8.504462 0,0 -0.283482,5.669645 -3.307292,12.095239 -2.173363,1.322918 -4.063244,1.039436 -4.063244,1.039436 l 2.740328,-2.07887 c 0,0 2.078869,-4.252232 3.023809,-10.299851 0,0 -1.606399,-4.252232 -5.953125,-8.976934 z"
       inkscape:connector-curvature="0"
       id="path4692" />
    <path
       style="fill:url(#linearGradient6236);fill-opacity:1;fill-rule:nonzero;stroke:none;stroke-width:0.26499999;stroke-linecap:butt;stroke-linejoin:miter;stroke-miterlimit:4;stroke-dasharray:none;stroke-opacity:1"
       d="m 54.712052,45.243749 c 3.212798,2.267858 1.984375,4.535715 1.984375,4.535715 0,0 -1.889879,3.02381 -3.118303,3.118303 -1.228423,0.09449 -3.401785,-1.039434 -3.401785,-1.039434 0,0 1.889879,-0.09449 3.212796,-1.228424 1.322917,-1.133927 1.795388,-2.740326 1.795388,-2.740326 0,0 0.47247,-1.889882 -0.472471,-2.645834 z"
       id="path4712"
       inkscape:connector-curvature="0" />
    <path
       style="fill:url(#linearGradient6258);fill-opacity:1;stroke:none;stroke-width:0.26458332px;stroke-linecap:butt;stroke-linejoin:miter;stroke-opacity:1"
       d="m 6.047619,58.850892 c 5.764137,3.023809 7.181548,3.96875 10.583333,4.913691 3.401786,0.94494 6.047619,0.09449 6.047619,0.09449 l 1.700893,2.267857 c 0,0 -4.535714,1.13393 -10.677827,-1.889881 C 7.5595238,61.21324 9.0714284,61.685711 6.047619,58.850889 Z"
       id="path6238"
       inkscape:connector-curvature="0" />
    <path
       style="fill:url(#linearGradient6270);fill-opacity:1;stroke:none;stroke-width:0.26458332px;stroke-linecap:butt;stroke-linejoin:miter;stroke-opacity:1"
       d="m 47.058034,57.433482 3.023809,0.09449 c 0,0 -0.472469,2.645833 -1.322916,4.819198 -0.850445,2.173361 1.795388,0.755951 1.795388,0.755951 0,0 6.047618,-2.456844 8.598958,-4.441219 2.55134,-1.984375 1.795386,-3.68527 1.795386,-3.68527 0,0 2.173364,0.566965 1.984375,1.228423 -0.188986,0.661459 -0.377976,2.740327 -4.724701,5.858632 -4.346726,3.118302 -7.9375,3.779761 -12.095239,4.252233 -4.157737,0.472469 -3.212796,-0.472472 -3.212796,-0.472472 0,0 1.511903,-0.944941 2.362351,-3.023809 0.850445,-2.078869 1.795385,-5.38616 1.795385,-5.38616 z"
       id="path6260"
       inkscape:connector-curvature="0" />
    <path
       style="fill:url(#linearGradient6288);fill-opacity:1;stroke:none;stroke-width:0.26458332px;stroke-linecap:butt;stroke-linejoin:miter;stroke-opacity:1"
       d="m 25.22991,44.487798 4.063246,0.377976 c 0,0 -2.267858,-0.283483 -5.669644,2.456844 -3.401786,2.740329 1.606398,-2.83482 1.606398,-2.83482 z"
       id="path6272"
       inkscape:connector-curvature="0" />
  </g>
  <g
     inkscape:label="レイヤー 1"
     id="layer1"
     transform="translate(0,-229.26665)"
     style="display:inline"
     inkscape:groupmode="layer">
    <path
       style="display:inline;fill:#000000;stroke-width:0.26458332"
       d="m 17.491563,295.54555 c -3.651865,-0.89014 -7.9551851,-3.16947 -10.4069112,-5.51221 -3.3974083,-3.24638 -3.7506779,-5.25673 -1.1015249,-6.26845 1.7176937,-0.656 3.3405729,-0.41539 5.9873491,0.88769 1.727999,0.85073 2.721397,1.15458 4.464547,1.36557 3.629321,0.43928 3.327625,0.62507 3.228333,-1.98806 -0.07766,-2.0439 -0.0119,-2.41814 0.685935,-3.90322 0.424509,-0.90341 1.51855,-2.63108 2.431203,-3.83928 0.912652,-1.20819 1.616012,-2.22187 1.563023,-2.25262 -0.05299,-0.0308 -0.751189,-0.36608 -1.551553,-0.74518 -0.800365,-0.37909 -2.085742,-1.25658 -2.856394,-1.94998 -1.357317,-1.22125 -1.44149,-1.25594 -2.688542,-1.10825 -0.708047,0.0839 -3.103982,0.74922 -5.324302,1.47858 -2.2203191,0.72936 -4.1358656,1.26498 -4.2567696,1.19025 -0.7317604,-0.45225 0.076161,-0.93628 3.4181956,-2.04787 2.000911,-0.66552 4.263098,-1.34385 5.027083,-1.5074 0.763984,-0.16355 1.389062,-0.34175 1.389062,-0.39599 0,-0.0542 -0.469873,-0.76938 -1.044162,-1.58921 -0.57429,-0.81982 -1.083121,-1.60746 -1.130735,-1.7503 -0.05507,-0.16522 -1.841908,-0.0931 -4.91083,0.19815 -2.6533424,0.25183 -4.897658,0.38447 -4.9873681,0.29476 -0.08971,-0.0897 -0.1002657,-0.32688 -0.023455,-0.52704 0.099806,-0.26009 1.1471844,-0.45445 3.6707071,-0.68115 1.942079,-0.17448 3.967624,-0.38182 4.501211,-0.46077 l 0.970158,-0.14354 -0.991131,-2.16328 -0.991132,-2.16328 -3.5509019,-0.13229 c -2.9211718,-0.10883 -3.5509015,-0.20267 -3.5509015,-0.52916 0,-0.32803 0.5820208,-0.4097 3.3550334,-0.47079 l 3.355033,-0.0739 -0.655731,-1.91046 C 9.8779965,252.07429 7.1815478,239.3531 7.1815478,236.39754 c 0,-2.6348 0.682558,-3.85261 2.7781248,-4.95671 0.8191824,-0.43161 1.5366344,-0.55812 3.1749994,-0.55987 2.748219,-0.003 4.983489,0.68193 9.927223,3.04161 4.556256,2.17474 6.363154,2.61609 10.710276,2.61609 4.326491,0 6.099204,-0.43358 10.678112,-2.61169 6.105903,-2.90449 9.224335,-3.64348 11.986495,-2.8405 0.803759,0.23366 1.792756,0.6855 2.197772,1.00408 1.017066,0.80003 1.715503,2.4706 1.722435,4.11986 0.01154,2.74339 -2.78248,15.87413 -4.346321,20.42597 -0.371224,1.08051 -0.674952,1.99947 -0.674952,2.04212 0,0.0427 1.398984,0.1111 3.108854,0.1521 2.553906,0.0612 3.108854,0.14539 3.108854,0.47142 0,0.32777 -0.5779,0.40969 -3.319031,0.47051 l -3.319034,0.0736 -0.978852,2.15486 c -0.538369,1.18517 -0.923126,2.21059 -0.855014,2.2787 0.06811,0.0681 2.000803,0.31544 4.29487,0.54962 3.561021,0.36351 4.18398,0.49349 4.25959,0.8888 0.111903,0.58504 -0.271545,0.58883 -5.371118,0.0532 -2.145988,-0.22541 -3.92588,-0.37424 -3.955314,-0.33073 -0.02943,0.0435 -0.601549,0.87534 -1.271363,1.84851 l -1.217848,1.7694 0.839473,0.17434 c 0.461711,0.0959 2.655178,0.76499 4.874371,1.4869 3.368412,1.09576 4.034895,1.39748 4.034895,1.82658 0,0.2827 -0.07823,0.51401 -0.173844,0.51401 -0.09562,0 -1.732725,-0.5294 -3.638021,-1.17644 -1.905296,-0.64705 -4.20792,-1.32563 -5.116941,-1.50797 l -1.652767,-0.33152 -0.860774,0.80582 c -1.424594,1.33363 -2.747402,2.22414 -4.023268,2.70845 l -1.208561,0.45876 1.470594,1.83656 c 1.654567,2.0663 2.816783,4.00274 3.287175,5.47694 l 0.317347,0.99456 0.722513,-0.4268 0.722514,-0.4268 -0.631473,-1.22922 c -0.788315,-1.53453 -0.70349,-3.29284 0.224163,-4.64667 2.217428,-3.23612 7.157725,-2.36371 8.183332,1.44511 0.509381,1.89169 -0.570524,4.2093 -2.402867,5.15685 -0.856657,0.44299 -2.801093,0.50944 -3.799509,0.12984 -0.548764,-0.20863 -0.85503,-0.13693 -1.613434,0.37773 -0.514853,0.34939 -1.032981,0.67364 -1.151398,0.72055 -0.118414,0.0469 -0.28748,0.71037 -0.3757,1.47435 -0.186434,1.61453 -0.384884,1.54488 3.220648,1.13035 1.750857,-0.2013 2.76842,-0.51323 4.853122,-1.48773 2.451696,-1.14605 2.748696,-1.22297 4.210251,-1.09044 1.731386,0.157 2.749492,0.68119 3.186692,1.64074 0.404283,0.8873 0.117909,1.73549 -1.11076,3.28987 -1.550578,1.96163 -3.700013,3.55714 -7.004659,5.19951 -4.167446,2.07117 -6.020739,2.47434 -11.304782,2.45926 -4.659201,-0.0133 -5.837367,-0.19217 -6.930702,-1.05218 -1.268685,-0.99795 -2.818757,-1.30864 -4.420666,-0.88606 -0.768453,0.20271 -1.700186,0.59222 -2.070518,0.86558 -1.195586,0.88253 -2.431225,1.07814 -6.758747,1.06999 -3.185492,-0.006 -4.72667,-0.12822 -6.226442,-0.49379 z m 5.178943,-1.46004 c -0.349073,-0.51438 -1.062483,-2.21912 -1.585355,-3.7883 l -0.950678,-2.85305 -3.103025,-0.31779 c -2.816089,-0.2884 -3.326693,-0.42742 -5.52184,-1.50337 -2.6054469,-1.27705 -3.7196356,-1.44689 -5.2626,-0.8022 -1.2860255,0.53734 -1.2177363,1.3384 0.261866,3.0718 2.7492123,3.22079 7.655293,5.90586 12.711215,6.95679 0.291041,0.0605 1.32925,0.1238 2.30713,0.14068 l 1.777964,0.0307 z m 6.368193,0.50687 c 0.533667,-0.25324 0.967946,-0.68815 1.062217,-1.06376 0.220597,-0.87892 -0.318105,-2.86294 -1.241964,-4.57411 -0.913654,-1.69227 -0.939263,-1.87125 -0.267735,-1.87125 0.291822,0 0.743847,0.38228 1.063382,0.8993 0.693266,1.12173 1.604031,3.73105 1.604031,4.59553 0,0.61165 0.05779,0.63719 0.992187,0.43837 1.260698,-0.26824 2.102107,-0.27411 3.139168,-0.0219 0.823446,0.20026 0.824195,0.19944 0.996963,-1.10295 0.179168,-1.35062 1.476494,-4.25129 2.152216,-4.81208 0.794705,-0.65955 0.705789,0.50107 -0.175535,2.2913 -0.670558,1.36209 -0.879843,2.13169 -0.883068,3.24726 -0.0039,1.36409 0.04898,1.48797 0.789527,1.84827 2.123098,1.03295 4.789559,0.46708 5.76535,-1.22351 0.962882,-1.66823 2.61326,-7.03831 2.762221,-8.98786 0.135868,-1.7782 0.08493,-2.02832 -0.78131,-3.83645 -0.509659,-1.06384 -1.671052,-2.86071 -2.58087,-3.99305 l -1.654217,-2.0588 -1.948516,0.17657 c -1.682289,0.15244 -1.97181,0.11587 -2.119003,-0.26771 -0.09377,-0.24436 -0.112598,-0.50217 -0.04185,-0.57292 0.07075,-0.0708 1.140296,-0.24359 2.376771,-0.38409 1.236472,-0.1405 2.763541,-0.4373 3.393487,-0.65955 1.368287,-0.48276 4.209039,-2.55703 3.723537,-2.71887 -0.186082,-0.062 -1.369222,-0.24855 -2.629204,-0.41451 -1.908138,-0.25132 -2.307056,-0.38596 -2.387727,-0.80588 -0.09139,-0.47568 0.03492,-0.49403 2.235668,-0.32487 1.282888,0.0986 2.758355,0.24739 3.278814,0.33061 0.914448,0.14623 0.984737,0.0965 2.088536,-1.47706 0.628235,-0.89561 1.07741,-1.69321 0.998167,-1.77245 -0.07924,-0.0792 -2.324314,-0.24168 -4.989049,-0.36097 -2.664735,-0.1193 -4.88347,-0.22587 -4.930518,-0.23682 -0.04705,-0.011 -0.0461,-0.22472 0.0021,-0.47505 0.07945,-0.41255 0.508225,-0.44844 4.583461,-0.38369 2.472698,0.0393 4.884261,0.13857 5.359032,0.22062 0.854943,0.14775 0.872252,0.12963 1.805353,-1.88995 0.518173,-1.12152 0.871378,-2.10988 0.784899,-2.19636 -0.08648,-0.0865 -2.565762,-0.0232 -5.509519,0.14068 -5.182782,0.28847 -6.253538,0.19988 -5.591071,-0.46259 0.145158,-0.14515 2.866276,-0.44137 6.046927,-0.65825 3.180654,-0.21687 5.807908,-0.42553 5.838343,-0.46367 0.03043,-0.0381 0.424755,-1.20046 0.876261,-2.5829 1.909654,-5.84709 4.415998,-17.91508 4.21759,-20.30762 -0.220647,-2.66056 -1.826331,-3.91481 -4.96639,-3.87938 -2.617092,0.0295 -4.336698,0.56714 -9.260416,2.89516 -4.818621,2.27833 -6.811759,2.77099 -11.210361,2.77099 -4.470921,0 -6.417821,-0.46424 -10.960652,-2.61359 -4.880087,-2.30892 -7.275039,-3.06386 -9.711278,-3.06123 -3.3596259,0.004 -4.894791,1.39629 -4.894791,4.44042 0,3.00198 2.522163,14.87367 4.187629,19.71096 l 0.971746,2.8224 1.5875,0.0684 c 4.63279,0.19945 9.537474,0.63204 9.766864,0.86143 0.667757,0.66776 -0.348859,0.77833 -4.61768,0.50225 -2.395489,-0.15492 -4.784123,-0.24285 -5.308077,-0.1954 l -0.952642,0.0863 0.933823,2.07346 0.933822,2.07347 1.077153,-0.14475 c 0.592434,-0.0796 2.921317,-0.17755 5.175295,-0.21763 3.580325,-0.0637 4.108427,-0.0195 4.179535,0.34977 0.108427,0.56302 -1.071426,0.74542 -5.102677,0.78886 -1.74625,0.0188 -3.515154,0.10943 -3.930897,0.20135 l -0.755897,0.16713 1.238342,1.68078 c 1.237715,1.67992 1.238902,1.6807 2.343397,1.52858 4.219274,-0.58109 5.568197,-0.52488 4.961013,0.20673 -0.183903,0.22159 -1.140254,0.44108 -2.412534,0.55371 -1.15932,0.10262 -2.16633,0.2812 -2.237801,0.39684 -0.208811,0.33787 1.712561,1.8773 3.163554,2.53469 0.734244,0.33266 2.466083,0.76142 3.848531,0.9528 1.903222,0.26347 2.513542,0.44432 2.513542,0.74483 0,0.32547 -0.36539,0.38204 -2.030831,0.31442 l -2.030832,-0.0825 -1.603688,1.93454 c -0.882028,1.064 -2.021982,2.72586 -2.533231,3.69302 -0.802302,1.51778 -0.929543,2.00744 -0.929543,3.5772 0,3.2573 2.033195,9.28514 3.594177,10.6557 0.792312,0.69566 1.129435,0.80966 2.394315,0.80966 0.809688,0 1.878398,-0.19277 2.37491,-0.42838 z m 3.662021,-32.22294 c -1.041604,-0.4537 -2.261952,-1.89776 -2.05641,-2.4334 0.08653,-0.22549 0.446492,-0.51992 0.79992,-0.65429 0.845431,-0.32144 3.568059,-0.313 4.427384,0.0137 1.277543,0.48572 0.704572,2.20314 -1.005793,3.01477 -1.076544,0.51085 -1.12514,0.51218 -2.165101,0.0592 z m -4.4407,-7.47715 c -0.09702,-0.097 -0.17639,-1.69162 -0.17639,-3.54356 0,-2.61665 0.08128,-3.39837 0.364633,-3.50711 0.758674,-0.29113 0.958284,0.44269 0.958284,3.5229 0,2.03435 -0.107051,3.17621 -0.3175,3.38666 -0.359688,0.35969 -0.573977,0.39616 -0.829027,0.14111 z m 9.934,-0.1378 c -0.513511,-0.51351 -0.438354,-6.40263 0.08728,-6.83886 0.761537,-0.63202 0.933455,0.0864 0.856922,3.581 -0.07326,3.34527 -0.249322,3.95274 -0.944203,3.25786 z M 17.333208,247.2682 c -0.09664,-0.25184 0.385129,-0.88167 1.346522,-1.76032 2.796475,-2.55582 3.130385,-4.29534 1.205292,-6.27901 -1.137717,-1.17235 -2.298969,-1.83483 -4.449631,-2.5385 -1.036976,-0.33928 -1.379587,-0.57329 -1.312071,-0.89617 0.114216,-0.54621 0.743385,-0.49066 2.689377,0.23743 2.750093,1.02894 5.11577,3.32497 5.368691,5.21064 0.198147,1.47729 -0.481469,2.7797 -2.486158,4.76443 -1.737531,1.72024 -2.10971,1.91901 -2.362022,1.2615 z m 30.432699,-1.39379 c -1.789579,-1.72127 -2.484361,-2.97925 -2.484361,-4.4982 0,-1.19229 0.987843,-2.75655 2.440469,-3.86452 2.009015,-1.53235 5.629322,-2.67892 5.629322,-1.78284 0,0.20972 -0.577694,0.56799 -1.326009,0.82235 -3.205589,1.08962 -5.685449,3.16746 -5.685449,4.76378 0,1.24531 0.900544,2.73424 2.504631,4.14109 0.801592,0.70303 1.458944,1.42707 1.46078,1.60897 0.0075,0.73939 -1.046599,0.24518 -2.539383,-1.19063 z m 1.570291,48.75457 c 2.0476,-0.43385 5.332383,-1.78825 7.500471,-3.09264 1.918007,-1.15393 4.600909,-3.61788 5.248273,-4.81997 0.513741,-0.95395 0.513725,-0.95441 -0.05288,-1.52102 -0.375023,-0.37502 -1.015471,-0.60989 -1.893004,-0.69421 -1.166823,-0.11211 -1.643464,0.0208 -3.965622,1.10636 -2.382504,1.1137 -2.936611,1.26349 -5.693087,1.53898 l -3.053691,0.3052 -0.957707,2.79235 c -0.526741,1.5358 -1.249206,3.23884 -1.605479,3.78455 l -0.647768,0.99218 1.6574,-0.005 c 0.911571,-0.003 2.469962,-0.17676 3.463094,-0.38719 z m 5.236707,-13.55921 c 0.748766,-0.4423 1.827202,-2.22436 1.81533,-2.99973 -0.01363,-0.88965 -1.053436,-2.61532 -1.812343,-3.00777 -1.161531,-0.60065 -2.984148,-0.5351 -3.839993,0.13811 -2.664311,2.09574 -1.431734,6.32663 1.843125,6.32663 0.680881,0 1.561827,-0.20202 1.993881,-0.45724 z"
       id="path31"
       inkscape:connector-curvature="0"
       inkscape:label="path31" />
  </g>
</svg>
