/* XPM */
static const char *np2_icon[] = {
/* columns rows colors chars-per-pixel */
"32 32 5 1",
"  c black",
". c #808080",
"X c #c0c0c0",
"o c white",
"O c None",
/* pixels */
"OOOOO    OOOOOOOOOOOOOO    OOOOO",
"OOOO oooo   OOOOOOOO   oooo OOOO",
"OOO oooooooo  OOOO  oooooooo OOO",
"OOO ooo  ooooo    ooooo  ooo OOO",
"OOO ooooX oooooooooooo .Xooo OOO",
"OOO oooXoX oooooooooo .XoooX OOO",
"OOOO oooXo oooooooooo ..ooo OOOO",
"OOOO ooXo oooooooooooo Xooo OOOO",
"OOOO ooo oooooooooooooo XoX OOOO",
"OOOO oooooooo oooo ooooooo. OOOO",
"OOOOO ooooooo oooo ooooooo OOOOO",
"OOOOO ooooooo oooo ooooooX OOOOO",
"OOOOO oooooooXooooXooooooX OOOOO",
"OOOOO ooooooooooooooooooo. OOOOO",
"OOOO        oo   .oo        OOOO",
"OOOOOO ooooooo   XooooooX OOOOOO",
"OOOOOO       ooXXoo       OOOOOO",
"OOO     oooooooooooooooX     OOO",
"OOOOOOOO    oooooooo    OOOOOOOO",
"OOOO      ooooooooooo..     OOOO",
"OOOOOOOOO  oooooooooo  OOOOOOOOO",
"OOOOOOOOOOO  .oooo.  OOO   OOOOO",
"OOOOOOOOOOO oooooooX OO .o. OOOO",
"OOOOOOOOOO oooooooooX O ooX OOOO",
"OOOOOOOOO ooooooooooo.  .X. OOOO",
"OOOOOOOOO oooooooooooo     OOOOO",
"OOO   OOO oooooooooooo OOOO  OOO",
"OO ooo    oooooooooooo     oo OO",
"OOO oooooo oo oooo oo oooooo OOO",
"OOOO ooooo ooo oo ooo ooooo OOOO",
"OOOOO  oooX oo    oo XXoo  OOOOO",
"OOOOOOO        OO        OOOOOOO"
};
